<svg version="1.2" xmlns="http://www.w3.org/2000/svg" viewBox="0 0 59 59" width="59" height="59">
                    <style>
                        .a {
                            fill: #bf8e60
                        }
                    </style>
                    <path class="a"
                        d="m31 6.2q0.4 0.3 0.7 0.7h0.1q0.2 0.2 0.3 0.4 0.3 0.3 0.5 0.5 0.2 0.3 0.4 0.6l0.1 0.2q0.1 0.2 0.3 0.5 0.4 0.7 0.7 1.5 0.3 0.9 0.5 1.8l0.1 0.4 0.2 0.8v0.3q0 0.2 0 0.4c0.1 1.1 0.1 2.3 0 3.9q-0.1 0.9-0.2 1.7-0.1 0.9-0.3 1.6c-0.1 0.6-0.2 1-0.3 1.3l-0.1 0.6-0.2 0.4q-0.1 0.3-0.1 0.5-0.1 0.1-0.1 0.2l-0.2 0.3 0.4 0.2 0.2-0.3q0-0.1 0.1-0.1v-0.1q0.1-0.2 0.2-0.5l0.2-0.4 0.2-0.6c0.1-0.3 0.3-0.8 0.4-1.3q0.2-0.7 0.4-1.6 0.1-0.9 0.3-1.8c0.2-1.6 0.2-2.9 0.2-4.1q0-0.2 0-0.4l-0.1-1.1-0.1-0.5c-0.1-0.6-0.2-1.3-0.4-2q-0.1-0.4-0.3-0.8l-0.1-0.2q0-0.1-0.1-0.2-0.1-0.3-0.3-0.6-0.5-0.7-1.1-1.4-0.5-0.5-1.1-0.9-0.2-0.2-0.4-0.2l-0.1-0.1q-0.3-0.2-0.5-0.3-0.4-0.1-0.6-0.2l-0.4-0.2-0.2 0.4 0.4 0.3q0.2 0.2 0.4 0.4z" />
                    <path class="a"
                        d="m37.3 1.8l0.3 0.2q0.2 0.3 0.6 0.8c0.3 0.3 0.5 0.7 0.7 1.1q0.4 0.6 0.8 1.3 0.4 0.9 0.7 1.6 0.3 0.9 0.5 1.8 0.2 0.8 0.3 1.9 0.1 0.9 0.1 2 0 0.9 0 1.9c-0.1 0.6-0.2 1.3-0.3 1.7-0.1 0.5-0.2 1-0.4 1.6q-0.2 0.8-0.4 1.2-0.2 0.3-0.3 0.6-0.1 0.2-0.2 0.4-0.2 0.3-0.3 0.6l-0.2 0.3 0.4 0.3 0.2-0.4q0.1-0.2 0.4-0.5 0.1-0.2 0.2-0.5 0.2-0.2 0.3-0.5 0.3-0.5 0.6-1.3c0.4-1.1 0.7-2.2 0.9-3.4q0.1-1 0.2-2 0-1.1 0-2.1 0-1-0.2-2.1c-0.1-0.7-0.3-1.4-0.5-2q-0.3-0.9-0.8-1.7-0.5-0.8-1-1.4-0.5-0.6-1-1.1-0.2-0.1-0.3-0.2l-0.6-0.5q-0.4-0.2-0.6-0.3l-0.3-0.2-0.3 0.3 0.3 0.3q0.1 0.1 0.2 0.3z" />
                    <path class="a"
                        d="m44.8 10.2q0 0.7-0.2 1.6-0.1 0.7-0.2 1.5-0.2 0.8-0.4 1.5c-0.2 0.5-0.3 0.9-0.4 1.2-0.2 0.6-0.3 1.2-0.5 1.6q-0.1 0.2-0.1 0.3l-0.3 0.9 0.4 0.2 0.4-0.8q0.4-1 0.8-1.9 0.2-0.5 0.5-1.3c0.2-0.5 0.3-1 0.5-1.4q0.2-0.9 0.4-1.6 0.2-1 0.2-1.7l0.1-0.2q0-0.4 0-0.7 0-0.5 0-0.9v-0.4-0.6q0-0.1 0-0.3l-0.2-0.8q0-0.2-0.1-0.4-0.1-0.4-0.2-0.7-0.3-0.7-0.6-1.3-0.3-0.6-0.6-1.1-0.2-0.4-0.4-0.7-0.3-0.3-0.5-0.6l-0.1-0.2-0.3 0.2v0.2q0.1 0.3 0.2 0.7 0.1 0.4 0.3 0.8l0.3 1.1c0.1 0.4 0.3 0.8 0.4 1.3q0.1 0.3 0.2 0.6l0.2 1 0.1 0.9v0.4q0.1 0.4 0.1 0.8 0 0.3 0 0.6z" />
                    <path class="a"
                        d="m45.5 16.9l-0.1 0.1 0.4 0.3 0.1-0.2q0 0 0.4-0.5c0.3-0.4 0.7-0.9 1-1.5q0.3-0.4 0.6-1c0.3-0.4 0.5-0.8 0.7-1.2q0.6-1.4 0.9-2.8 0.2-0.6 0.3-1.5 0.2-0.8 0.1-1.5 0-0.8-0.1-1.4 0-0.2-0.1-0.4v-0.2q-0.1-0.2-0.2-0.4v-0.2q-0.2-0.5-0.4-1l-0.2-0.3q-0.1-0.2-0.2-0.3 0 0 0-0.1-0.2-0.2-0.3-0.3l-0.2-0.3-0.4 0.1 0.1 0.3q0 0.1 0 0.2 0.1 0.1 0.1 0.3 0.1 0.3 0.2 0.6v0.2q0 0.1 0 0.2l0.1 0.4q0 0.1 0.1 0.3v0.1q0 0.5 0.1 1c0 0.4 0 0.7 0 1.3q0.1 0.6 0 1.3c0 0.4 0 0.9-0.1 1.4-0.1 0.9-0.4 1.8-0.7 2.7-0.3 0.7-0.6 1.5-1 2.2-0.3 0.7-0.7 1.2-0.8 1.5-0.2 0.4-0.4 0.6-0.4 0.6z" />
                    <path class="a"
                        d="m50.9 12.8c0.2-0.3 0.5-0.7 0.8-1.1q0.4-0.4 0.6-0.8 0.1-0.2 0.3-0.4l0.1-0.1q0.1-0.2 0.2-0.3 0.5-1 1-2.1 0.2-0.6 0.4-1.1 0.2-0.6 0.3-1.1 0.1-0.5 0.1-1.1l0.1-0.5q0-0.1 0-0.3 0 0 0-0.1-0.1-0.4-0.1-0.7 0-0.1 0-0.2-0.1-0.3-0.1-0.6-0.2-0.5-0.2-0.5v-0.1h-0.4v0.1c0 0-0.1 0.2-0.1 0.5q-0.1 0.3-0.2 0.7 0 0.3-0.1 0.7l-0.4 1.8-0.2 1.1q-0.1 0.5-0.2 1-0.3 0.9-0.8 2 0 0.2-0.1 0.3v0.1q-0.1 0-0.1 0.1-0.1 0.2-0.2 0.4-0.2 0.4-0.4 0.8-0.3 0.5-0.6 0.8-0.1 0.2-0.1 0.3l-0.4 0.6 0.3 0.3z" />
                    <path class="a"
                        d="m54.4 11.4v0.1-0.1q-0.1 0-0.2 0.1-0.5 0.2-0.9 0.4v0.1q-0.2 0.1-0.3 0.2h-0.1q-0.1 0.1-0.2 0.2-0.3 0.3-0.4 0.5l-0.3 0.2 0.3 0.3 0.4-0.2q0.1-0.1 0.4-0.2 0.3-0.1 0.6-0.2 0.4-0.1 0.8-0.2 0.2-0.1 0.4-0.1h0.1q0.2 0 0.3 0 0.4-0.1 0.7-0.2l0.6-0.2q0.1-0.1 0.2-0.1h0.1v-0.3-0.1q0 0-0.2-0.2-0.1 0-0.3-0.1-0.2-0.1-0.4-0.2c-0.2 0-0.5-0.1-0.9 0q-0.2 0-0.5 0.2-0.1 0-0.2 0.1z" />
                    <path class="a"
                        d="m55.1 14.2q-0.4 0.1-0.9 0.1h-0.1q-0.9 0.1-1.8 0.3c-0.5 0.1-1 0.3-1.6 0.4q-0.7 0.2-1.1 0.4l-0.5 0.2 0.1 0.4 1-0.2q0.3 0 0.7-0.1c0.9-0.1 2.1-0.2 3.2-0.2q0.5 0 0.9 0.1 0.4 0 0.7 0.1h0.1c0.2 0 0.5 0.1 0.7 0.1q0.3 0.1 0.5 0.3 0.2 0.1 0.3 0.2 0.2 0.2 0.2 0.4 0.1 0.1 0.1 0.2 0 0 0.1 0v0.3h0.4l0.1-0.3q0-0.1 0-0.4 0 0 0 0 0-0.1 0-0.2v-0.1q0-0.1 0-0.3-0.2-0.4-0.4-0.7-0.3-0.4-0.8-0.6-0.4-0.2-1-0.3-0.4-0.1-0.9-0.1z" />
                    <path class="a"
                        d="m47.6 18.3q0.3 0 0.7 0h0.4q0.8 0 1.6 0c0.5 0.1 1.1 0.1 1.6 0.3l0.4 0.1q0.2 0.1 0.4 0.2 0.3 0.1 0.6 0.3h0.1q0.2 0.2 0.5 0.3 0.1 0.1 0.1 0.1l0.1 0.1q0.3 0.1 0.5 0.3 0.2 0.2 0.4 0.4 0.2 0.2 0.3 0.3 0.1 0.1 0.2 0.2 0 0 0 0l0.2 0.2 0.3-0.1v-0.3q0-0.1 0-0.3-0.1-0.2-0.2-0.6-0.2-0.3-0.4-0.6-0.2-0.3-0.6-0.7-0.3-0.3-0.7-0.5-0.5-0.3-0.9-0.4-0.2 0-0.5-0.1l-0.3-0.1q0 0-0.1 0h-0.1q-0.9-0.1-2 0-0.8 0.1-1.5 0.2l-1.7 0.3v0.4z" />
                    <path class="a"
                        d="m41 21.9c-0.7 0.1-1.3 0.1-1.7 0.2q-0.3 0.1-0.5 0.2l-0.3 0.1 0.1 0.4 0.4-0.1q0.1 0 0.4 0c0.2-0.1 0.8-0.1 1.6-0.1q0.4 0.1 1 0.1 0.6 0.1 1.2 0.2 1.4 0.2 2.5 0.6 0.7 0.2 1.2 0.5c0.4 0.2 0.7 0.4 1 0.6 0.3 0.2 0.6 0.4 0.9 0.6v0.1q0.2 0.1 0.3 0.3 0.2 0.1 0.3 0.2v0.1q0.1 0.1 0.1 0.2 0.1 0.1 0.1 0.1l0.2 0.4 0.1 0.3q0 0.1 0 0.2v0.1q0.1 0.2 0.1 0.3 0 0.1 0 0.2v0.2l0.4 0.1 0.1-0.3q0-0.1 0.1-0.2 0-0.1 0-0.3l0.1-0.1q0-0.1 0-0.3v-0.4q0-0.2-0.1-0.4v-0.3q-0.1-0.2-0.2-0.4c-0.3-0.7-0.9-1.4-1.8-1.9-0.3-0.2-0.7-0.4-1.2-0.6q-0.8-0.3-1.4-0.4c-1.6-0.4-3.5-0.6-5-0.5z" />
                    <path class="a"
                        d="m36.5 24.7q-0.8 0.1-1.3 0.3-0.5 0.2-0.5 0.2l-0.1 0.1 0.1 0.4 0.2-0.1c0.1 0 0.3-0.1 0.4-0.1q0.7-0.1 1.3-0.1c0.8 0 2.4 0 3.9 0.3 0.3 0 0.7 0.1 1 0.2q0.6 0.2 1 0.4 0.3 0.2 0.7 0.3l0.1 0.1q0.1 0.1 0.3 0.2 0.1 0.1 0.2 0.2 0.1 0.1 0.2 0.2 0 0 0 0 0.1 0.1 0.1 0.1v0.1q0.1 0 0.1 0.1l0.1 0.2q0.1 0.1 0.1 0.2v0.1q0.1 0.1 0.1 0.2 0 0.1 0.1 0.1v0.2h0.4l0.1-0.3q0-0.1 0-0.4v-0.1q0-0.1 0-0.2v-0.4q-0.1-0.2-0.2-0.4 0 0 0-0.1-0.1-0.2-0.2-0.3c-0.3-0.6-1-1.1-1.7-1.4q-0.5-0.2-1.1-0.3-0.6-0.2-1.2-0.2-0.6-0.1-1.1-0.1-0.6 0-1.1 0.1-0.9 0-2 0.2z" />
                    <path class="a"
                        d="m56.1 35.1q0.1 0.1 0.1 0.2l0.1 0.1 0.3-0.2v-0.1q0 0 0-0.2-0.1-0.3-0.3-0.5-0.2-0.4-0.6-0.7-0.4-0.3-1-0.5-0.6-0.2-1.2-0.3-0.4-0.1-0.7 0-0.2 0-0.5 0h-0.1q-0.8 0.1-1.4 0.2-0.8 0.2-1.4 0.3c-1 0.3-2 0.6-2.7 0.9q-0.9 0.3-1.6 0.5-0.3 0.2-0.6 0.3l-2.4 0.8 0.2 0.4h0.1c0 0 1-0.2 2.3-0.6l2.3-0.6c0.6-0.1 1.6-0.4 2.6-0.6q0.6-0.1 1.3-0.1c0.5-0.1 1-0.1 1.3-0.1 0.5 0 0.8 0 1.2 0 0.3 0 0.7 0 1 0.1q0.4 0.1 0.8 0.2 0.4 0.1 0.6 0.3 0.2 0.1 0.3 0.2z" />
                    <path class="a"
                        d="m54.4 38q-0.2-0.1-0.6-0.3-0.1-0.1-0.1-0.1-0.2 0-0.3-0.1l-0.4-0.2q-0.5-0.2-1-0.3c-0.6-0.1-1.2-0.2-1.8-0.2h-0.5q-0.4-0.1-0.8-0.1-0.4 0-0.7 0h-0.4q-0.1 0-0.3 0-0.3 0.1-0.6 0.1c-0.3 0-0.6 0.1-0.9 0.1q-0.3 0-0.7 0.1-0.4 0.1-0.6 0.1l-0.6 0.2 0.1 0.4h0.6q0.3-0.1 0.6-0.1 0.4 0 0.7 0 0.4 0 0.8 0 0.3 0 0.6 0.1h0.6q0.3 0 0.7 0.1 0.4 0 0.7 0.1h0.3q0.1 0.1 0.3 0.1 0.3 0.1 0.7 0.2 0.1 0 0.4 0.1 0.2 0.1 0.5 0.1 0.7 0.2 1.3 0.3l0.4 0.1q0.2 0 0.3 0.1h0.2q0.1 0 0.2 0l0.6 0.1q0.2 0.1 0.5 0.1h0.1l0.1-0.3-0.1-0.1q-0.2-0.2-0.4-0.3-0.1-0.2-0.5-0.4z" />
                    <path class="a"
                        d="m54.6 44q0.2 0.1 0.3 0.2v0.1q0.1 0.1 0.2 0.2l0.1 0.2h0.3l0.1-0.3q0-0.1 0-0.4 0-0.2-0.1-0.6-0.2-0.3-0.4-0.6-0.2-0.4-0.5-0.7-0.3-0.3-0.8-0.5-0.1-0.1-0.2-0.1l-0.2-0.1q-0.1-0.1-0.3-0.2h-0.1q-0.5-0.2-0.9-0.3c-1.1-0.5-2.3-0.8-3.2-1l-1.6-0.4-0.2 0.4 0.2 0.1c0 0 0.5 0.2 1.4 0.6h0.1c0.8 0.4 1.9 0.8 2.9 1.3q0.3 0.2 0.7 0.4h0.1q0.1 0.1 0.3 0.2v0.1q0.1 0 0.1 0.1l0.2 0.1q0.3 0.2 0.6 0.4 0.3 0.2 0.5 0.4 0.3 0.2 0.4 0.4z" />
                    <path class="a"
                        d="m52.5 57.8v0.1l0.4 0.1 0.1-0.1q0-0.1 0.3-0.8c0-0.2 0.1-0.4 0.2-0.7v-0.2q0.1-0.4 0.2-1.1 0.1-0.5 0.1-1.1 0-0.2 0-0.3 0-0.3-0.1-0.6v-0.1q0 0 0-0.1 0-0.4-0.1-0.8v-0.1q-0.1-0.4-0.2-0.7 0-0.3-0.1-0.5l-0.1-0.3q-0.1-0.4-0.2-0.8-0.1-0.1-0.1-0.3-0.1-0.3-0.2-0.5l-0.1-0.3q-0.3-0.6-0.6-1.3-0.2-0.6-0.5-1.1l-0.2-0.3q-0.1-0.2-0.3-0.5 0-0.1-0.1-0.2v-0.1q-0.2-0.2-0.4-0.5l-0.1-0.2q-0.3-0.5-0.7-0.9l-0.3-0.5-0.4-0.4q-0.3-0.4-0.6-0.7l-0.6-0.6-0.3 0.3 0.5 0.7q0.2 0.2 0.4 0.5l0.4 0.6 0.3 0.5c0.2 0.3 0.4 0.6 0.6 1l0.1 0.1q0.3 0.5 0.5 1.1l0.3 0.6q0.3 0.5 0.5 1.1 0.2 0.6 0.4 1.2l0.1 0.3q0.1 0.2 0.1 0.5 0 0.1 0.1 0.2l0.1 0.4 0.2 1.2q0 0.2 0.1 0.5v0.3q0.1 0.2 0.1 0.4v0.1q0 0.1 0 0.2 0 0.1 0.1 0.2v0.1q0 0.2 0 0.4l0.1 0.6q0 0.3 0 0.6 0 0.3 0.1 0.6 0 0.2 0 0.3 0 0.1 0 0.2v0.3q0 0.3 0 0.6c-0.1 0.4-0.1 0.7-0.1 0.8z" />
                    <path class="a"
                        d="m47.1 52.9q0 0.4-0.1 0.8 0 0.2-0.1 0.5 0 0.1-0.1 0.2v0.2q-0.1 0.2-0.2 0.4 0 0.1-0.1 0.2 0 0.2-0.1 0.4l-0.1 0.1q-0.1 0.2-0.2 0.4l-0.1 0.1q-0.1 0.1-0.1 0.2l-0.3 0.3-0.4 0.5 0.2 0.3 0.6-0.3q0.2-0.1 0.4-0.3 0.4-0.3 0.8-0.8 0.4-0.5 0.7-1.3 0.4-0.8 0.6-1.7 0.2-1 0.2-1.9 0-1-0.2-2.1-0.1-1-0.4-2.1-0.2-0.9-0.6-2c-0.3-0.7-0.6-1.3-0.8-1.8q-0.4-0.8-0.9-1.7l-0.1-0.1q-0.2-0.3-0.4-0.6l-0.2-0.3q-0.1-0.2-0.3-0.4-0.4-0.5-0.9-1.1l-0.4-0.4q-0.1-0.1-0.2-0.2-0.1-0.1-0.1-0.1-0.3-0.3-0.5-0.4 0-0.1-0.1-0.1l-0.3-0.3-0.3 0.4 0.3 0.3q0 0 0.1 0v0.1q0.2 0.1 0.4 0.3l0.3 0.4 0.4 0.4q0.4 0.6 0.8 1.1 0.1 0.2 0.2 0.5h0.1q0 0.1 0.1 0.2 0.1 0.3 0.3 0.6l0.1 0.2q0.4 0.7 0.7 1.6c0.2 0.5 0.4 1 0.7 1.8q0.3 1 0.5 1.9c0.1 0.6 0.2 1.3 0.2 1.9q0.1 1 0.1 1.9 0 0.9-0.2 1.8z" />
                    <path class="a"
                        d="m41.3 41.6c0.4 1 0.9 2.1 1.3 3.2q0.3 1 0.5 1.9 0.2 0.9 0.3 1.9c0.1 0.7 0.1 1.3 0.1 1.8q-0.1 0.9-0.2 1.6c-0.1 0.5-0.2 1-0.3 1.3q-0.2 0.6-0.4 1-0.1 0.3-0.2 0.5l-0.2 0.5 0.3 0.2 0.3-0.5q0.1-0.2 0.3-0.5c0.1-0.2 0.3-0.5 0.5-1 0.1-0.5 0.3-0.9 0.4-1.4q0.2-0.7 0.3-1.6c0.1-0.8 0.1-1.4 0.1-1.9q0-1.1-0.2-2.1-0.2-0.9-0.5-2c-0.3-1.2-0.7-2.6-1.3-3.9-0.5-1.1-1.2-2.2-1.8-3.1q-0.6-0.7-1-1.1-0.4-0.4-0.8-0.7-0.4-0.4-0.6-0.5l-0.3-0.2-0.3 0.3 0.3 0.4q0.2 0.2 0.4 0.5 0.3 0.4 0.6 0.8c0.2 0.3 0.5 0.7 0.7 1.2 0.5 0.7 0.9 1.7 1.5 3z" />
                    <path class="a"
                        d="m37.6 38.4c-0.3-0.5-0.6-1.1-1.1-1.6-0.2-0.3-0.4-0.5-0.7-0.7q-0.3-0.3-0.7-0.6-0.8-0.5-1.6-0.8-0.8-0.2-1.5-0.4-1-0.1-1.7-0.1-0.3-0.1-0.5-0.1-0.7-0.1-0.8-0.1h-0.2l-0.1 0.4 0.3 0.1q0.2 0.1 0.6 0.3c0.3 0.1 0.7 0.2 1.1 0.3q0.5 0.1 1 0.3 0.7 0.2 1.3 0.5 0.7 0.3 1.3 0.7 0.3 0.3 0.6 0.5c0.2 0.2 0.4 0.4 0.6 0.6 0.3 0.3 0.7 0.8 1 1.4 0.6 0.9 1.1 2 1.4 3.1 0.2 0.9 0.3 2 0.3 3q-0.1 0.6-0.2 1.2-0.1 0.5-0.2 0.9-0.1 0.4-0.2 0.6l-0.1 0.3 0.4 0.2 0.1-0.4q0.2-0.2 0.3-0.5 0.2-0.5 0.3-1 0.2-0.6 0.3-1.3 0.1-0.8 0.1-1.5 0-0.9-0.2-1.7c-0.2-1.2-0.6-2.5-1.2-3.6z" />
                    <path class="a"
                        d="m19.5 7.3c-0.3 0.4-0.6 0.9-0.8 1.5-0.2 0.4-0.4 0.9-0.6 1.4q-0.3 1-0.5 2l-0.1 0.1q-0.1 0.3-0.1 0.5c-0.4 1.5-0.7 2.5-0.7 2.5l-0.1 0.2 0.4 0.1 0.1-0.2c0.1-0.3 0.5-1.2 0.9-2.4l0.5-1.2q0.1-0.1 0.1-0.3l0.1-0.1q0.1-0.4 0.3-0.9c0.2-0.5 0.4-0.9 0.6-1.3q0.4-0.7 0.8-1.2l0.2-0.3 0.3-0.2q0.2-0.3 0.5-0.5c0.4-0.3 0.8-0.5 1.1-0.8q0.6-0.3 1.2-0.5c0.3-0.2 0.6-0.3 1-0.4q0.2-0.1 0.3-0.1 0.1 0 0.2-0.1l0.5-0.1q0.5 0 0.8-0.1 0.2 0 0.3 0h0.1q0 0 0.1 0h0.3l0.1-0.4-0.4-0.1q0 0 0 0-0.2-0.1-0.5-0.2 0 0-0.1 0-0.1 0-0.3-0.1h-0.5q-0.6 0-1.1 0c-0.2 0-0.4 0.1-0.6 0.1q-0.1 0-0.3 0.1-0.2 0-0.4 0.1-0.6 0.2-1.4 0.6-0.8 0.5-1.3 1-0.1 0.1-0.2 0.2l-0.1 0.2q-0.1 0.1-0.2 0.2l-0.3 0.4z" />
                    <path class="a"
                        d="m30.8 11.5q-0.1-0.1-0.3-0.2-0.4-0.3-1-0.5-0.6-0.2-1.3-0.2-0.9-0.1-1.6 0.1-0.2 0-0.4 0.1h-0.1q-0.1 0.1-0.3 0.1l-0.1 0.1q-0.4 0.2-0.8 0.4-1.5 1-2.8 2.6-0.2 0.3-0.5 0.7-0.3 0.4-0.6 0.9c-0.3 0.5-0.6 1.1-0.8 1.5l-1.4 2.9q-0.7 1.3-1 1.9l-0.1 0.2q-0.2 0.2-0.2 0.3l-0.3 0.3 0.4 0.3 0.2-0.3q0.1-0.1 0.3-0.4l0.1-0.1q0.2-0.3 0.5-0.8 0.3-0.5 0.7-1.1l1.5-2.8 0.2-0.3q0.4-0.6 0.7-1.2 0.3-0.3 0.5-0.6c0.2-0.3 0.4-0.5 0.6-0.7q1.3-1.5 2.6-2.1 0.3-0.1 0.6-0.2l0.6-0.2q0.1-0.1 0.2-0.1 0.7-0.2 1.3-0.3 0.5 0 1.1 0 0.5 0.1 0.9 0.2 0.1 0 0.3 0.1 0.1 0 0.2 0.1l0.4 0.1 0.2-0.3-0.3-0.3q-0.1-0.1-0.2-0.2z" />
                    <path class="a"
                        d="m16.2 7.7q0.1 0.4 0.1 0.7 0.1 0.4 0.1 0.7 0.2 0.7 0.3 1.1l0.1 0.5 0.4-0.1v-0.5-0.2q-0.1-0.4-0.1-0.8 0-0.8 0.1-1.5c0-0.5 0-1.1 0.2-1.6q0.1-0.7 0.5-1.4 0-0.1 0.1-0.2 0 0 0-0.1c0.1 0 0.1-0.1 0.1-0.1q0.1-0.1 0.1-0.2 0.2-0.2 0.4-0.4 0.4-0.4 0.7-0.7 0.2-0.1 0.3-0.1l0.1-0.1v-0.3l-0.2-0.1q-0.1 0-0.4 0-0.3 0-0.6 0.1-0.3 0.1-0.6 0.2-0.4 0.2-0.7 0.5-0.1 0.1-0.1 0.2c-0.1 0.1-0.1 0.1-0.2 0.2-0.1 0.1-0.2 0.2-0.3 0.4q-0.2 0.4-0.3 1 0 0.4-0.1 0.9 0 0.4 0 0.9 0 0.4 0 0.9z" />
                    <path class="a"
                        d="m3.6 3.9q0.8 0 1.9 0.1h0.1q0.6 0.1 1.2 0.2 0.6 0.2 1.4 0.4 0.7 0.2 1.4 0.5 0.8 0.3 1.4 0.7 0.6 0.5 1.2 1.1 0.4 0.5 0.9 1.1l0.1 0.1c0.5 0.6 1.2 1.5 1.7 2.3q0.4 0.5 0.6 0.9 0.2 0.5 0.3 0.8c0.1 0.2 0.2 0.4 0.2 0.6l0.1 0.3 0.4-0.1-0.1-0.3c0-0.1 0-0.3-0.1-0.6q-0.1-0.4-0.3-0.9c-0.1-0.3-0.3-0.7-0.5-1.1-0.4-0.8-1-1.6-1.6-2.5q-0.5-0.6-1-1.3c-0.4-0.5-0.8-0.9-1.2-1.3q-0.7-0.6-1.5-1-0.8-0.4-1.6-0.7-0.7-0.2-1.6-0.3-0.8-0.1-1.4-0.1c-1 0.1-1.7 0.2-2.1 0.4q-0.3 0-0.6 0.2l-0.3 0.1v0.4z" />
                    <path class="a"
                        d="m1 13.9q0.1-0.1 0.1-0.2l0.2-0.1q0-0.1 0.1-0.1 0.1 0 0.1-0.1l0.2-0.1q0.1-0.1 0.1-0.1 0.1-0.1 0.1-0.1c0.4-0.2 0.8-0.4 1.2-0.5l0.4-0.1q0.1 0 0.3-0.1 0.1 0 0.2 0 0.1 0 0.2 0h0.4c0.6 0 1.2 0 1.7 0.1 0.5 0.1 1.2 0.3 1.8 0.5q1 0.4 1.8 0.9 0.9 0.5 1.7 1.1c0.6 0.4 1 0.9 1.5 1.3 0.4 0.5 0.8 1 1.1 1.4l0.3 0.4 0.2 0.4q0.2 0.3 0.3 0.6l0.1 0.1q0.1 0.3 0.3 0.6l0.1 0.2 0.1 0.5q0.2 0.4 0.3 0.8l0.1 0.2q0 0.3 0.1 0.5 0 0.1 0 0.2l0.1 0.4 0.4-0.1v-0.4q0-0.1 0-0.2-0.1-0.2-0.1-0.5v-0.1q-0.1-0.5-0.3-1l-0.1-0.4-0.1-0.4q-0.1-0.3-0.3-0.6v-0.1q-0.2-0.4-0.4-0.7l-0.2-0.4-0.2-0.4c-0.3-0.6-0.7-1.1-1.2-1.6-0.4-0.5-0.9-1-1.4-1.5q-0.8-0.7-1.8-1.4c-0.6-0.4-1.3-0.8-1.9-1q-0.9-0.4-2-0.7-1-0.2-2.1-0.1-0.9 0.1-1.8 0.5-0.1 0-0.2 0.1-0.3 0.1-0.5 0.3l-0.4 0.2q-0.1 0.1-0.2 0.2v0.1q-0.1 0-0.1 0.1-0.1 0-0.1 0.1c-0.1 0.2-0.2 0.2-0.3 0.4 0 0-0.3 0.8-0.1 0.9 0.1 0 0.1 0.1 0.2 0z" />
                    <path class="a"
                        d="m15.5 24.8q0-0.5-0.1-0.9c0-0.3-0.1-0.6-0.2-1.1q-0.4-1.5-1.1-2.8c-0.6-1-1.3-1.9-2.1-2.6q-0.7-0.7-1.4-1.1-0.9-0.5-1.6-0.7c-0.6-0.2-1.3-0.2-1.8-0.1-0.6 0.1-1.1 0.3-1.4 0.5q-0.6 0.4-1 0.7-0.4 0.3-0.7 0.5-0.3 0.3-0.6 0.5l-0.1 0.1 0.2 0.3h0.3q0.2-0.1 0.6-0.2 0.4-0.1 0.8-0.3 0.2-0.1 0.3-0.1 0.4-0.2 0.7-0.3 0.6-0.2 1.2-0.3 0.6-0.1 1.2-0.1 0.6 0.1 1.3 0.5 0.7 0.4 1.3 0.9c0.8 0.6 1.5 1.4 2.1 2.3q0.7 1.1 1.2 2.5c0.1 0.3 0.2 0.7 0.3 1q0.1 0.6 0.1 0.9 0.1 0.3 0.1 0.5l0.1 0.4h0.4v-0.5q0-0.2-0.1-0.5z" />
                    <path class="a"
                        d="m11.7 28.7c0 1 0 2 0 2.8 0 0.8 0 1.5 0 2.1q0 0.5 0.1 0.7v0.2h0.4v-0.2c0.1-0.2 0.3-1.3 0.6-2.7 0.1-0.7 0.2-1.7 0.3-2.8 0-0.6 0.1-1.1 0-1.6q0-0.2 0-0.3v-0.2q0-0.2-0.1-0.3v-0.1q0-0.5-0.2-0.9 0-0.2-0.1-0.4 0-0.1-0.1-0.3l-0.1-0.2q-0.2-0.3-0.4-0.7c-0.4-0.5-0.8-1-1.2-1.3q-0.7-0.5-1.5-0.7-0.7-0.2-1.4-0.2-1 0-2 0.4-0.3 0.1-0.5 0.3l-0.3 0.1 0.1 0.4 0.4-0.1q0.2-0.1 0.5-0.2c0.4-0.1 1-0.2 1.8-0.2 0.5 0.1 1.4 0.3 2.3 1q0.5 0.4 0.8 1.1 0.2 0.3 0.4 0.6l0.1 0.4q0 0.1 0.1 0.3 0 0.3 0 0.7v0.4q0 0.1 0 0.2 0 0.1 0 0.2 0 0.6 0 1.1z" />
                    <path class="a"
                        d="m15.9 29.4q-0.3 0.4-0.6 0.9c-0.8 1.2-1.4 2.5-1.8 3.4q-0.3 0.8-0.4 1.2-0.2 0.4-0.2 0.4l-0.1 0.2 0.4 0.2 0.1-0.1q0-0.1 0.2-0.5l0.7-1c0.3-0.5 0.6-1.1 0.9-1.5 0.3-0.5 0.7-1.1 1.1-1.6q0.4-0.5 0.7-0.8c0.2-0.2 0.5-0.4 0.7-0.6q0.3-0.2 0.6-0.4 0.4-0.2 0.6-0.4 0.3-0.1 0.6-0.1 0.3-0.1 0.5-0.1 0.1 0 0.3 0h0.2l0.2-0.3-0.2-0.2q-0.2-0.1-0.4-0.2-0.3-0.1-0.6-0.2-0.5-0.1-0.8 0-0.5 0-1 0.3-0.5 0.2-0.9 0.5-0.4 0.4-0.8 0.9z" />
                    <path class="a"
                        d="m17.6 26.4l0.1-0.1c0 0 0.5-0.8 1.3-1.9q0.6-0.8 1.4-1.9 1-1.2 1.8-2.1c0.3-0.3 0.6-0.7 0.9-1q0.5-0.5 1-0.8 0.5-0.5 0.9-0.7 0.2-0.1 0.4-0.2 0.1 0 0.2 0l0.2-0.1c0.4 0 0.6-0.1 0.8 0q0.3 0 0.6 0.1 0.2 0.1 0.3 0.2l0.2 0.2 0.3-0.2-0.1-0.3c0-0.1-0.1-0.3-0.3-0.5-0.2-0.2-0.5-0.4-0.8-0.5q-0.5-0.2-1.1-0.2-0.1 0-0.3 0-0.2 0-0.3 0.1-0.4 0-0.7 0.2-0.6 0.3-1.2 0.8c-0.3 0.2-0.6 0.6-1 1q-0.5 0.6-0.9 1.1-0.8 1-1.6 2.3c-0.5 0.8-1 1.6-1.3 2.1-0.7 1.2-1.1 2-1.1 2.1l-0.1 0.1z" />
                    <path class="a"
                        d="m8.5 42.1c-0.2 1.1-0.4 2-0.6 2.6l-0.2 1.1 0.4 0.1 0.3-1.1c0.3-0.7 0.5-1.6 0.8-2.5 0.3-1.4 0.5-2.5 0.7-3.7q0.4-2.3 0.3-4.3c0-1.8-0.2-3.2-0.6-4.4q-0.4-1.1-1.1-1.9c-0.4-0.5-0.9-0.9-1.4-1.2q-0.7-0.4-1.5-0.7-0.7-0.1-1.2-0.1-0.2 0-0.4 0h-0.1q-0.1 0-0.3 0.1h-0.4v0.4l0.4 0.1q0.2 0 0.7 0.1c0.5 0.2 1.3 0.5 2.1 1.1q0.7 0.5 1.1 1.1 0.4 0.6 0.8 1.5 0.3 0.9 0.5 1.9 0.2 1 0.3 2 0.1 1.9-0.1 4.2c-0.1 1.2-0.3 2.5-0.5 3.6z" />
                    <path class="a"
                        d="m5.6 43.3c-0.2 1.1-0.4 2.2-0.6 3.2q-0.2 1.1-0.4 1.9l-0.4 1.4 0.4 0.1 0.4-1c0.2-0.6 0.4-1.4 0.7-2.2 0.2-0.9 0.6-2 0.8-3.2 0.3-1.5 0.5-2.7 0.7-3.8q0.1-1.1 0.1-2c-0.1-0.6-0.1-1.3-0.3-2q-0.1-0.2-0.2-0.5v-0.2q-0.1-0.1-0.1-0.2-0.2-0.5-0.5-0.8-0.5-0.8-1-1.4-0.5-0.5-1.1-0.9-0.6-0.3-1-0.4-0.4-0.2-0.7-0.2l-0.3-0.1-0.2 0.3 0.3 0.3q0.2 0 0.4 0.2l0.3 0.2q0.2 0.2 0.6 0.5 0.4 0.4 0.8 0.9 0.4 0.6 0.7 1.2 0.2 0.4 0.4 0.7 0 0.1 0.1 0.3v0.1q0.1 0.2 0.2 0.4 0.2 0.7 0.3 1.7 0.1 0.8 0 1.8c0 1.1-0.2 2.3-0.4 3.7z" />
                    <path class="a"
                        d="m13.9 39.3c0.7-1 1.4-2.1 2.1-3.1 0.4-0.5 0.7-1 1.2-1.5l0.2-0.2 0.4-0.4q0.1-0.1 0.2-0.2h0.1q0-0.1 0-0.1 0.1 0 0.1-0.1 0.1-0.1 0.3-0.1c0.8-0.7 1.7-1.2 2.6-1.5 0.4-0.2 0.7-0.3 1.1-0.3h0.1q0.5-0.1 0.9-0.1h0.4q0.1-0.1 0.1 0 0.1 0 0.2 0h0.3l0.1-0.4-0.3-0.1c-0.2-0.1-0.4-0.2-0.7-0.2q-0.1-0.1-0.3-0.1-0.1 0-0.2 0-0.2-0.1-0.4-0.1h-0.2c-0.4 0-0.9 0-1.4 0.1q-0.9 0.2-1.6 0.6-0.9 0.4-1.6 0.9-0.2 0.2-0.4 0.3l-0.1 0.1q-0.1 0.1-0.3 0.3l-0.3 0.4-0.3 0.3c-0.4 0.5-0.8 1.1-1.2 1.7-0.7 1.1-1.3 2.3-1.9 3.3q-0.9 1.6-1.5 3l-1.6 3 0.4 0.2z" />
                    <path class="a"
                        d="m26.3 26.8q0.2-0.5 0.2-1c0-0.2 0-0.4 0-0.6q-0.1-0.3-0.1-0.5-0.2-0.6-0.6-1-0.3-0.4-0.9-0.6-0.5-0.2-1-0.1c-0.3 0-0.6 0.1-0.8 0.3q-0.2 0.2-0.4 0.4-0.1 0.2-0.2 0.3l-0.1 0.3 0.3 0.2 0.2-0.1q0.1-0.1 0.2-0.1 0.2-0.1 0.4-0.1 0.2 0 0.4 0 0.5 0.1 1 0.5 0.2 0.2 0.4 0.5 0 0.1 0.1 0.2v0.1c0 0.1 0 0.2 0 0.3q0.1 0.3 0 0.8-0.1 0.3-0.3 0.7-0.1 0.3-0.3 0.7-0.2 0.3-0.4 0.6-0.1 0.2-0.3 0.5-0.2 0.2-0.3 0.3-0.3 0.3-0.3 0.3l-0.1 0.1 0.3 0.4 0.1-0.1q0 0 0.3-0.3l0.2-0.1q0.1-0.1 0.2-0.2 0.3-0.3 0.5-0.5 0.2-0.2 0.4-0.6c0.2-0.2 0.4-0.4 0.5-0.7q0.3-0.4 0.4-0.9z" />
                    <path class="a"
                        d="m26.4 29q0.1-0.1 0.4-0.3c0.2-0.1 0.5-0.5 0.9-1 0.4-0.5 1.3-1.9 1.7-3.8q0.1-0.6 0.1-1.2 0-0.7-0.2-1.2-0.3-0.8-0.7-1.1c-0.3-0.3-0.7-0.5-1.1-0.5q-0.5-0.1-1 0.1-0.3 0.1-0.6 0.3-0.3 0.2-0.4 0.3l-0.1 0.2 0.2 0.3h0.2q0.2 0 0.4 0 0.2-0.1 0.4 0 0.3 0 0.6 0.1 0.3 0.1 0.5 0.3c0.1 0.1 0.3 0.2 0.4 0.5q0.2 0.3 0.3 0.8c0.1 0.3 0 0.6 0 1q-0.1 0.9-0.4 1.9c-0.3 0.6-0.5 1.2-0.8 1.7-0.3 0.5-0.6 0.8-0.8 1q-0.1 0.1-0.2 0.2l-0.3 0.2 0.3 0.3z" />
                    <path class="a"
                        d="m29.1 27.4q0.3-0.2 0.5-0.5l0.3-0.3 0.3-0.4q0.3-0.4 0.6-0.8l0.1-0.1q0.1-0.2 0.2-0.5l0.1-0.1q0 0 0.1-0.1v-0.1q0.1-0.1 0.2-0.3l0.1-0.2c0.1-0.3 0.3-0.6 0.4-1 0.2-0.3 0.3-0.7 0.4-1l0.1-0.1q0-0.1 0-0.2l0.1-0.4q0.2-0.5 0.3-1 0.2-0.6 0.3-1.3 0-0.3 0-0.7 0-0.3 0-0.6v-0.6q-0.1-0.1-0.1-0.3 0-0.1 0-0.2 0-0.3-0.1-0.5v-0.2q-0.1-0.1-0.1-0.2l-0.1-0.4q0-0.2-0.1-0.3v-0.1c-0.2-0.3-0.3-0.5-0.3-0.6v-0.1l-0.4 0.1v0.1q0 0.3 0 0.7 0 0.2 0 0.5v0.2q0 0.1 0 0.2 0 0.1 0 0.2-0.1 0.2-0.1 0.5 0 0.3 0 0.6l-0.2 1.6q0 0.2 0 0.5 0 0.4-0.1 0.7c0 0.3-0.1 0.7-0.1 0.9v0.1q-0.1 0.1-0.1 0.3 0 0.1-0.1 0.3v0.1q-0.1 0.4-0.2 0.8-0.2 0.6-0.4 1l-0.1 0.2q-0.2 0.5-0.4 1l-0.1 0.2q-0.2 0.4-0.4 0.8l-0.3 0.4-0.2 0.3q-0.3 0.3-0.4 0.6l-0.5 0.6 0.3 0.3z" />
                    <path class="a"
                        d="m29.5 30.6q0.2-0.1 0.5-0.1 0.2 0 0.3 0 0.4 0 0.8 0.1h0.6l0.8 0.2q0.1 0 0.2 0.1 0 0 0.1 0h0.1q0.2 0.1 0.4 0.2 0.2 0.1 0.4 0.1v0.1q0.3 0.1 0.6 0.2 0.3 0.1 0.5 0.2l0.1 0.1q0.2 0.1 0.4 0.1l0.8 0.5q0.4 0.1 0.8 0.3 0.4 0.2 0.6 0.3 0.3 0.1 0.4 0.1h0.3l0.2-0.3-0.2-0.2q-0.1 0-0.1 0-0.1-0.1-0.3-0.3l-0.6-0.5q-0.2-0.2-0.5-0.4l-0.1-0.1q-0.1-0.1-0.3-0.3l-0.4-0.3q-0.2-0.1-0.4-0.2h-0.1q-0.2-0.2-0.4-0.3h-0.1c-0.4-0.2-0.8-0.3-1.2-0.4l-0.8-0.1q-0.1-0.1-0.2-0.1h-0.5q-0.2 0-0.4-0.1h-0.6q-0.5 0-0.9 0.1-0.2 0-0.4 0-0.3 0-0.5 0.1l-0.6 0.1q-0.3 0-0.7 0.1h-0.1q-0.1 0.1-0.2 0.1-0.1 0-0.2 0.1h-0.1q-0.2 0.1-0.5 0.1l-1.2 0.5 0.1 0.4 1.3-0.3q0.2 0 0.5-0.1 0.2 0 0.3 0 0.1 0 0.2 0h0.1q0.3-0.1 0.6-0.1z" />
                    <path class="a"
                        d="m13.5 42.2q0.2-0.2 0.6-0.4c0.6-0.3 1.5-0.7 2.7-1.1 1.1-0.4 2.5-0.7 3.8-0.9q1-0.2 2.2-0.3c0.9 0 1.6 0 2.3 0.1 0.7 0.1 1.5 0.2 2.2 0.4q0.4 0.1 0.7 0.2 0.2 0.1 0.4 0.1v0.1q0.5 0.1 1 0.3c0.7 0.3 1.3 0.6 1.8 0.9l0.4 0.3q0.2 0 0.3 0.1 0.1 0.1 0.1 0.1h0.1q0.3 0.3 0.7 0.5 0.1 0.1 0.3 0.2 0.2 0.2 0.3 0.3l0.2 0.2q0.2 0.2 0.4 0.3 0.2 0.1 0.3 0.3 0.1 0.1 0.2 0.1 0.1 0.1 0.1 0.2h0.1q0.1 0.1 0.2 0.2 0.6 0.6 0.8 0.8l0.1 0.1 0.3-0.2-0.1-0.2c0-0.1-0.3-0.5-0.5-0.9q-0.4-0.6-0.8-1.1l-0.1-0.1c-0.3-0.3-0.7-0.7-1.1-1.1q-0.3-0.3-0.7-0.6-0.1-0.1-0.2-0.1-0.1-0.1-0.2-0.2l-0.5-0.3c-0.3-0.2-0.6-0.4-0.9-0.6-0.3-0.1-0.5-0.2-0.7-0.3l-0.1-0.1q-0.1 0-0.3-0.1-0.6-0.2-1.1-0.4h-0.2q-0.5-0.2-1-0.3-1-0.2-2.4-0.3-1.1 0-2.4 0.1-1.3 0.1-2.4 0.3c-0.8 0.2-1.5 0.4-2.1 0.6q-0.9 0.3-1.8 0.7-0.8 0.3-1.5 0.6-0.7 0.4-1.1 0.7-0.4 0.2-0.7 0.4l-0.4 0.3 0.3 0.3z" />
                    <path class="a"
                        d="m21.5 55.4c-0.4-0.2-0.8-0.5-1.3-0.8-0.5-0.4-1-0.7-1.5-0.9q-0.3-0.2-0.5-0.3l-0.6-0.2q-0.3-0.2-0.6-0.3-0.9-0.3-1.8-0.6l-0.5-0.1-0.5-0.1q-0.6 0-1 0c-0.6 0-1.2 0-1.9 0.1q-0.9 0.2-1.7 0.5-0.8 0.3-1.4 0.6-1.1 0.5-2 1.2-0.4 0.3-0.5 0.4l-0.3 0.3 0.3 0.3 0.3-0.2q0.1-0.1 0.5-0.3 0.4-0.3 0.8-0.5 0.6-0.3 1.2-0.6 0.6-0.2 1.4-0.4 0.7-0.2 1.5-0.3 1-0.1 1.8 0 0.4 0 0.8 0.1l0.4 0.1 0.4 0.1q0.9 0.3 1.7 0.7c0.4 0.2 0.9 0.4 1.2 0.6l3.2 1.6 1.1 0.6q0.4 0.2 0.7 0.3l0.2 0.1c0.5 0.3 0.8 0.4 0.8 0.4h0.2l0.2-0.3-0.1-0.1c0 0-1-0.9-2.5-2z" />
                    <path class="a"
                        d="m5.7 53l-0.3 0.4 0.3 0.3 0.4-0.3q0.2-0.3 0.6-0.6c0.5-0.4 1.3-0.9 2.5-1.4 1.1-0.5 2.5-0.9 3.9-1.2q1.2-0.2 2.3-0.3 0.4 0 0.6 0h0.6c0.3 0.1 0.7 0.1 1.1 0.2q1 0.2 2.2 0.8c0.8 0.4 1.5 0.8 2 1.1q1 0.6 1.8 1.3c0.4 0.3 0.9 0.7 1.5 1.2 0.5 0.5 0.8 0.8 1.1 1.1q0.5 0.6 0.8 1 0.1 0.2 0.2 0.3l0.3 0.4 0.2 0.4 0.4-0.2-0.1-0.4q-0.2-0.4-0.4-0.9c-0.2-0.4-0.7-1.4-1.7-2.6q-0.6-0.7-1.5-1.4-0.9-0.8-1.9-1.4-1-0.6-2.2-1.1-1.3-0.5-2.5-0.7c-0.3-0.1-0.7-0.1-1.3-0.2h-0.4-0.2q-0.3 0.1-0.6 0.1-1.2 0.1-2.5 0.4-1.1 0.3-2.1 0.6-1 0.4-1.9 0.8c-1.3 0.7-2.2 1.4-2.6 1.7q-0.4 0.4-0.6 0.6z" />
                    <path class="a"
                        d="m10.1 49.1q0.6-0.4 1.3-0.8 0.2-0.1 0.3-0.1c0.5-0.3 1-0.5 1.5-0.7l0.2-0.1q0.2 0 0.3-0.1l0.6-0.2q0.1 0 0.1 0h0.1q0.2-0.1 0.3-0.1l0.6-0.2q1.1-0.2 2.6-0.3 0.2 0 0.4 0 0.1 0 0.2 0c0.2 0 0.5 0 0.7 0l0.3 0.1q0.5 0 1.1 0.1 1.2 0.2 2.7 0.7c0.8 0.3 1.6 0.6 2.6 1.1 0.9 0.6 1.6 1.1 2.3 1.5 0.8 0.6 1.5 1.1 2 1.6q0.9 0.7 1.7 1.6 0.7 0.7 1.3 1.4 0.6 0.8 0.8 1.3 0.3 0.4 0.5 0.8l0.1 0.5 0.4-0.1v-0.5q-0.1-0.1-0.1-0.3v-0.2q-0.1-0.2-0.2-0.5-0.2-0.6-0.7-1.5l-0.2-0.2q-0.1-0.3-0.4-0.6l-0.3-0.5-0.3-0.4q-0.3-0.3-0.5-0.6l-0.1-0.1q-0.1-0.1-0.2-0.2-0.1-0.2-0.2-0.3h-0.1q-0.3-0.3-0.6-0.6c-0.6-0.6-1.2-1.1-2.1-1.8q-1.2-0.8-2.5-1.4c-0.9-0.4-1.9-0.8-2.8-1.1q-1.7-0.5-3-0.6c-0.4-0.1-0.8-0.1-1.2-0.1l-0.2-0.1q-0.3 0-0.5 0-0.1 0-0.3 0-0.1 0-0.2 0.1-0.3-0.1-0.5 0l-1 0.1-1 0.2q-0.3 0-0.4 0.1h-0.1q-0.1 0-0.2 0l-0.6 0.2q-0.2 0.1-0.4 0.1-0.1 0.1-0.2 0.1l-0.5 0.2q-0.2 0.1-0.4 0.2 0 0-0.1 0c-0.6 0.3-1.1 0.6-1.6 0.8q-0.1 0.1-0.3 0.2-0.7 0.4-1.3 0.9l-1.1 0.9 0.2 0.3z" />
                    <path class="a"
                        d="m38.6 56.3q-0.2-1.1-0.6-2.3-0.5-1.5-1.2-2.8-0.9-1.6-2-3.1-1.3-1.6-2.9-2.9-1.8-1.4-3.8-2.2-1.1-0.4-2.2-0.7-0.1-0.1-0.3-0.1l-0.8-0.2q-0.5-0.1-1.1-0.1-2.1-0.2-4.4 0.2-2.1 0.3-4.2 1.1-2 0.8-3.6 1.8-1.5 1-2.8 2.2-0.5 0.5-1 1l-0.2 0.3q-0.1 0.1-0.2 0.2h-0.1q-0.3 0.4-0.6 0.8l-0.1 0.1q-0.4 0.5-0.7 0.9l-0.1 0.1q-0.2 0.4-0.5 0.8 0 0.1-0.1 0.2v0.1q-0.2 0.2-0.3 0.4l-0.7 1.2 0.4 0.2 0.7-1.1q0.1-0.2 0.2-0.4l0.3-0.3q0.2-0.4 0.5-0.8l0.1-0.1q0.3-0.4 0.6-0.8l0.2-0.1q0.3-0.4 0.6-0.8 0.2-0.1 0.3-0.3l0.2-0.1q0.4-0.5 0.9-0.9 1.4-1.2 2.8-2.1 1.7-1 3.5-1.6 2-0.7 4-0.9 2.2-0.3 4.2-0.1 0.5 0 1 0.1l0.5 0.2q0.1 0 0.2 0 0.2 0 0.3 0.1 1 0.3 2 0.7 1.9 0.9 3.4 2.1c0.5 0.4 0.9 0.8 1.5 1.3q0.6 0.6 1.2 1.4c0.4 0.4 0.8 0.9 1.1 1.4q0.5 0.6 0.9 1.4 0.8 1.3 1.4 2.6 0.5 1.2 0.8 2.1 0.3 0.7 0.4 1.2l0.3 0.9 0.4-0.1-0.1-0.7q-0.1-0.5-0.3-1.5z" />
                    <path class="a"
                        d="m1.8 8.5q0.2 0 0.5-0.1l0.2-0.1q0.3-0.1 0.7-0.2 0.6-0.1 1.2-0.1 0.6 0 1.3 0.1 0.6 0.2 1.4 0.4 0.9 0.3 1.5 0.7 0.7 0.3 1.5 0.9 0.7 0.5 1.4 1 0.7 0.6 1.3 1.2 1.3 1.3 2 2.3 0.7 0.8 1.2 1.8 0.2 0.3 0.2 0.5l0.2 0.4 0.4-0.2-0.1-0.3q-0.1-0.2-0.2-0.6c-0.2-0.4-0.5-1.1-1.1-2-0.5-0.9-1.2-1.7-2-2.5q-0.6-0.7-1.2-1.3-0.7-0.7-1.4-1.3-0.8-0.6-1.6-1-0.9-0.6-1.6-0.9-0.9-0.3-1.7-0.4-0.9-0.1-1.6 0-0.6 0.1-1.3 0.4-0.6 0.3-0.9 0.5-0.4 0.2-0.6 0.4l-0.2 0.3 0.2 0.3z" />
                    <path class="a"
                        d="m25.2 7.5q-0.5 0-0.9 0.2-0.1 0-0.3 0l-0.2 0.1q0 0.1-0.1 0.1-0.1 0.1-0.3 0.2-0.7 0.4-1.4 1.1-0.6 0.7-1.1 1.4-0.9 1.3-1.7 3.1-0.6 1.3-1.1 2.8c-0.3 1-0.4 1.7-0.5 2.1-0.1 0.5-0.1 0.8-0.1 0.8v0.1l0.4 0.1v-0.2c0.1-0.2 0.2-0.5 0.2-0.7 0.2-0.5 0.4-1.2 0.7-2 0.3-0.8 0.8-1.8 1.2-2.6q0.9-1.6 1.8-2.8 0.6-0.7 1.1-1.1 0.6-0.5 1.3-0.9 0.1-0.1 0.1-0.1l0.4-0.2q0.3-0.1 0.6-0.2 0.6-0.1 1.3-0.1 0.6 0 1.1 0.1 0.4 0 0.9 0.1 0.6 0.1 0.7 0.1h0.2l0.1-0.3-0.3-0.2q-0.2-0.2-0.5-0.3-0.4-0.2-0.9-0.3c-0.3-0.1-0.7-0.3-1.2-0.3q-0.8-0.2-1.5-0.1z" />
                    <path class="a"
                        d="m32.8 2.5q0.4 0.3 0.9 0.7c0.3 0.2 0.7 0.6 1.1 1 0.3 0.3 0.7 0.8 1 1.3q0.1 0.1 0.1 0.2 0.1 0.1 0.1 0.1l0.2 0.4q0.2 0.5 0.3 1 0.3 0.9 0.6 2 0.3 1.1 0.5 2.1 0.3 2 0.2 4.2-0.1 1.9-0.4 3.7-0.2 0.8-0.4 1.5-0.1 0.6-0.3 1.1-0.2 0.5-0.2 0.7l-0.2 0.4 0.4 0.2 0.2-0.4q0.1-0.3 0.3-0.7 0.2-0.6 0.4-1.1 0.2-0.7 0.5-1.5 0.5-1.9 0.7-3.8c0.1-1.5 0.1-3 0-4.5q-0.1-1.2-0.3-2.3-0.3-1.1-0.7-2.1l-0.2-0.5-0.2-0.5-0.2-0.5-0.1-0.1q-0.1-0.2-0.2-0.3-0.6-0.8-1.4-1.4c-0.9-0.7-1.7-1.1-2.4-1.4q-0.4-0.2-0.7-0.3l-0.4-0.2-0.2 0.4 0.2 0.1c0 0 0.3 0.2 0.8 0.5z" />
                    <path class="a"
                        d="m46.4 19.4q-0.3 0-0.6 0.1h-0.1q-0.2 0-0.5 0-0.5 0.1-1 0.2-0.3 0.1-0.5 0.1l-1 0.3 0.1 0.4 0.8-0.1h0.3q0.2-0.1 0.4-0.1h0.1q0.4 0 0.9 0 0.2-0.1 0.4-0.1l0.1 0.1q0.2 0 0.6 0 0.3 0 0.6 0 0.3 0.1 0.6 0.1c0.3 0.1 0.7 0.1 1.3 0.3 0.3 0.1 0.8 0.2 1.2 0.4q0.6 0.2 1.2 0.5c0.5 0.3 0.9 0.5 1.2 0.7 0.2 0.2 0.6 0.4 1 0.6 0.2 0.2 0.5 0.4 0.8 0.7 0.1 0.1 0.4 0.4 0.6 0.6q0.2 0.3 0.3 0.6 0.1 0.2 0.1 0.3v0.3l0.3 0.1 0.2-0.3q0-0.1 0-0.2 0.1-0.2 0.1-0.4 0-0.1-0.1-0.3v-0.2q0-0.2-0.1-0.3-0.2-0.5-0.6-1-0.3-0.4-0.8-0.9c-0.3-0.3-0.6-0.5-1.1-0.8q-0.6-0.4-1.3-0.7-0.7-0.2-1.4-0.4c-0.5-0.2-1-0.3-1.4-0.4q-0.8-0.1-1.4-0.1-0.4-0.1-0.7-0.1-0.4 0-0.6 0z" />
                    <path class="a"
                        d="m38.5 28.9h0.1q0.1 0.1 0.3 0.3 0.2 0.3 0.4 0.6 0.1 0.3 0.2 0.7 0 0.3 0 0.5v0.1q-0.1 0.2-0.1 0.3v0.3l0.3 0.2 0.2-0.3q0.1-0.1 0.2-0.4 0.1-0.3 0.2-0.7 0.1-0.6 0-1-0.2-0.6-0.5-1.1-0.2-0.3-0.5-0.5-0.1-0.1-0.2-0.1l-0.3-0.3q-0.6-0.4-1.2-0.5c-0.5-0.2-0.9-0.2-1.3-0.3q-1.3-0.1-2.5 0.1c-0.7 0-1.4 0.2-2.1 0.3-0.5 0.2-1.1 0.4-1.4 0.5-0.4 0.2-0.6 0.3-0.6 0.3h-0.1l0.2 0.4h0.1q0.2-0.1 0.5-0.2 0.7-0.1 1.4-0.2 1.1-0.1 2-0.1c0.7 0 1.5 0 2.3 0.2q0.5 0.1 1 0.3 0.5 0.2 1 0.4l0.2 0.1 0.1 0.1q0.1 0 0.1 0z" />
                    <path class="a"
                        d="m39.6 33.8q0.1 0 0.3 0 0.2 0 0.6 0 0.5 0 1.1-0.1 0.6-0.1 1.3-0.3 0.7-0.2 1.4-0.4c0.6-0.2 1.2-0.5 1.7-0.6q0.7-0.3 1.3-0.5 0.8-0.3 1.5-0.5 0.7-0.2 1.5-0.3 0.7-0.2 1.3-0.3h0.2q0.2-0.1 0.4-0.1 0.3 0 0.6 0 0.5 0 1 0.1 0.5 0 0.8 0.1 0.2 0.1 0.3 0.2 0.1 0 0.1 0l0.4 0.1 0.2-0.3-0.3-0.3q-0.2-0.1-0.4-0.3-0.3-0.2-0.9-0.5h-0.1q-0.2-0.1-0.4-0.2-0.3 0-0.6-0.1c-0.4-0.1-0.9-0.1-1.4 0q-0.8 0-1.6 0.2-0.8 0.2-1.5 0.5-0.9 0.3-1.5 0.6-0.6 0.2-1.1 0.5l-0.2 0.1q-0.8 0.3-1.6 0.7c-0.4 0.1-0.8 0.3-1.4 0.5q-0.6 0.2-1.2 0.4-0.5 0.1-1 0.2c-0.4 0.1-0.6 0.1-0.8 0.1q-0.3 0-0.5 0h-0.4v0.4l0.4 0.1q0.2 0 0.5 0z" />
                    <path class="a"
                        d="m24.3 35.5q-0.3-0.3-0.8-0.5c-0.3-0.1-0.6-0.3-1.1-0.3q-0.5-0.1-1.1 0.1c-0.4 0.1-0.8 0.3-1.1 0.4q-1 0.5-1.8 1.1c-0.5 0.3-1 0.8-1.4 1.2-0.4 0.3-0.7 0.7-0.9 1q-0.1 0.2-0.2 0.3l-0.1 0.2 0.3 0.3 0.2-0.3q0.1-0.1 0.2-0.2 0.3-0.3 1-0.8c0.4-0.3 0.9-0.6 1.4-0.9 0.5-0.2 1.1-0.6 1.7-0.8q0.5-0.1 0.9-0.1 0.5-0.1 0.9-0.1 0.3 0 0.7 0.1 0.4 0.1 0.7 0.2 0.3 0.2 0.5 0.3l0.1 0.1q0.3 0.1 0.4 0.2 0.2 0.1 0.2 0.1l0.3 0.2 0.3-0.2-0.1-0.2q-0.1-0.2-0.2-0.4-0.4-0.6-1-1z" />
                </svg>