     <svg version="1.2" xmlns="http://www.w3.org/2000/svg" viewBox="0 0 1507 331" width="1507" height="331">
                <style>
                    .a {
                        fill: #c1774d !important;
                    }
                </style>
                <path class="a" d="m476.5 134.9v-125.5h43.1v-7.3h-108.4v7.3h42.9v125.5z" />
                <path class="a"
                    d="m347.4 54.3h-16.2c-12.5 0-27.4-3.6-27.4-20.5 0-16.7 11.4-26.3 31.3-26.3 19.7 0 34.8 7.9 39.5 20.6l0.6 1.7h7.6l-1.2-3.5c-5.6-16.1-23.4-26.1-46.5-26.1-27.7 0-48.6 18.4-48.6 42.8 0 21.6 14.4 33.5 40.5 33.5h16.5c16.3 0 26 8.5 26 22.8 0 19.2-12 30.2-32.8 30.2-21.4 0-37.7-8-41.6-20.4l-0.6-1.9h-7.5l1 3.4c5.1 16.4 23.2 26.2 48.5 26.2 29.4 0 50.8-19.1 50.8-45.6 0-25.5-20-36.9-39.9-36.9z" />
                <path fill-rule="evenodd" class="a"
                    d="m589.8 2.4l49.7 132.5h-23.9l-0.1-0.2-15-40.2h-51.7l-15 40.4h-8.1l0.2-0.5 49.3-132.3h14.6zm-15 22.7l-23.3 62.2h46.2z" />
                <path fill-rule="evenodd" class="a"
                    d="m791.8 78h-29v56.9h-22.4v-132.8h51.4c30.2 0 46.2 13.2 46.2 38 0 24.8-16 37.9-46.2 37.9zm21.3-42.6c0-18.2-6.4-26-21.3-26h-29v61.3h29c14.9 0 21.3-7.7 21.3-25.9z" />
                <path fill-rule="evenodd" class="a"
                    d="m258.5 68.5c0 59.5-38.2 68.3-61 68.3-22.8 0-61.1-8.8-61.1-68.3 0-59.4 38.3-68.3 61.1-68.3 22.8 0 61 8.9 61 68.3zm-24.9-10.2c0-34.2-11.8-50.8-36.1-50.8-24.4 0-36.2 16.6-36.2 50.8v20.4c0 34.2 11.8 50.8 36.2 50.8 24.3 0 36.1-16.6 36.1-50.8z" />
                <path fill-rule="evenodd" class="a"
                    d="m963.2 134.9h-23.9l-0.1-0.2-14.9-40.2h-51.8l-15 40.4h-8.1l0.2-0.5 49.3-132.3h14.6l0.7 1.8zm-64.7-109.9l-23.2 62.2h46.1z" />
                <path class="a"
                    d="m1177 72.7l-44-70.6h-20.1v132.8h7.3v-109.7l41.7 66.4 0.1 0.2h13.1l41.7-72.5v115.6h22.4v-132.8h-21.3z" />
                <path class="a"
                    d="m1466.3 54.3h-16.2c-12.5 0-27.4-3.6-27.4-20.5 0-16.7 11.4-26.3 31.3-26.3 19.7 0 34.8 7.9 39.5 20.6l0.6 1.7h7.6l-1.2-3.5c-5.6-16.1-23.4-26.1-46.5-26.1-27.7 0-48.6 18.4-48.6 42.8 0 21.6 14.4 33.5 40.5 33.5h16.4c16.3 0 26.1 8.5 26.1 22.8 0 19.2-12 30.2-32.8 30.2-21.4 0-37.7-8-41.6-20.4l-0.6-1.9h-7.5l1 3.4c5.1 16.4 23.2 26.2 48.5 26.2 29.4 0 50.8-19.1 50.8-45.6 0-25.5-20-36.9-39.9-36.9z" />
                <path fill-rule="evenodd" class="a"
                    d="m1332.7 2.4l49.7 132.5h-23.9l-0.1-0.2-15-40.2h-51.7l-15.1 40.4h-8l0.1-0.5 49.4-132.3h14.6zm-15.1 22.7l-23.2 62.2h46.2z" />
                <path class="a" d="m1077.5 127.6h-62.5v-125.5h-22.4v132.8h84.9z" />
                <path class="a"
                    d="m61.2 7.5c21.6 0 33.4 11.7 36.9 21.7l0.6 1.8h7.5l-1.1-3.5c-5-16.6-22.2-27.3-43.7-27.3-22.8 0-61.1 8.9-61.1 68.3 0 59.5 38.3 68.3 61.1 68.3 21.5 0 38.7-10.7 43.7-27.3l1.1-3.5h-7.5l-0.6 1.8c-3.5 10-15.3 21.7-36.9 21.7-24.2 0-36-16.6-36-50.8v-20.4c0-34.2 11.8-50.8 36-50.8z" />
                <path class="a" d="m446.5 329.9h-41.3v-64.4h40.4v4h-31v25.8h25.7v3.9h-25.7v26.7h31.9z" />
                <path fill-rule="evenodd" class="a"
                    d="m534.9 329.9h-10.1l-7.2-19.3h-27l-7.2 19.3h-4.3l24-64.4h7.6l0.3 0.7zm-42.8-23.3h24l-12-32.1z" />
                <path class="a"
                    d="m594.3 330.8c-12.7 0-21.7-4.7-24-12.6l-0.3-1.3h3.9l0.3 0.7c1.9 5.7 9.7 9.3 20.2 9.3 10 0 16-5.5 16-14.7 0-10.6-9.6-11.4-12.5-11.4h-7.9c-12.6 0-19.6-5.8-19.6-16.4 0-11.7 9.6-19.8 23.2-19.8 11.7 0 20.7 4.9 22.9 12.6l0.4 1.3h-3.9l-0.3-0.7c-2-5.7-9.3-9.3-19.1-9.3-9.8 0-15.3 4.6-15.3 12.9 0 6.7 4.5 10.1 13.2 10.1h7.8c13.1 0 19.2 9.2 19.3 17.8 0 12.3-10.4 21.5-24.3 21.5z" />
                <path class="a" d="m685.3 329.9h-9.4v-60.4h-21.6v-4h52.7v4h-21.7z" />
                <path class="a"
                    d="m819.6 330.8c-11 0-29.4-4.3-29.4-33.1 0-28.8 18.4-33.1 29.4-33.1 11.1 0 19.5 5 21.9 13.2l0.4 1.2h-4l-0.2-0.6c-2.2-6.2-9-9.9-18.3-9.9-12.3 0-18.6 8.2-18.6 24.3v9.8c0 16.1 6.3 24.3 18.6 24.3 9 0 16.1-3.9 18.3-9.9l0.2-0.7h4l-0.4 1.3c-2.4 8.2-10.8 13.2-21.9 13.2z" />
                <path fill-rule="evenodd" class="a"
                    d="m933.1 329.9h-10.1l-7.2-19.3h-27l-7.2 19.3h-4.3l24-64.4h7.6l0.3 0.7zm-42.8-23.3h24l-12-32.1z" />
                <path fill-rule="evenodd" class="a"
                    d="m980.6 329.9h-9.3v-64.4h24.8c13.9 0 21.8 6.8 21.8 18.5 0 11.8-7.9 18.5-21.8 18.5h-15.5zm0-31.2h15.5c8 0 11.2-3.7 11.2-12.9v-3.4c0-9.1-3.2-12.9-11.2-12.9h-15.5z" />
                <path class="a" d="m1100.2 329.9h-41.3v-64.4h40.3v4h-30.9v25.8h25.6v3.9h-25.6v26.7h31.9z" />
            </svg>